<svg width="174" height="76" viewBox="0 0 174 76" fill="none" xmlns="http://www.w3.org/2000/svg">
<g filter="url(#filter0_d_3_31)">
<rect x="10.8494" y="10.8494" width="151.891" height="54.2468" rx="5.42468" fill="white"/>
<path d="M97.2088 34.4199H92.0838V34.964C93.6869 34.964 93.9446 35.3078 93.9446 37.3423V41.0099C93.9446 43.0441 93.6871 43.4167 92.0838 43.4167C90.853 43.2449 90.0224 42.5857 88.8772 41.325L87.5603 39.8926C89.3353 39.577 90.2799 38.4599 90.2799 37.199C90.2799 35.6234 88.9346 34.4199 86.4149 34.4199H81.376V34.964C82.979 34.964 83.2368 35.3078 83.2368 37.3423V41.0099C83.2368 43.0441 82.979 43.4167 81.376 43.4167V43.961H87.0733V43.4167C85.4703 43.4167 85.2126 43.0441 85.2126 41.0099V39.9787H85.6991L88.8772 43.961H97.2088C101.303 43.961 103.078 41.7837 103.078 39.176C103.078 36.5687 101.303 34.4199 97.2088 34.4199ZM85.2128 39.0898V35.2796H86.3864C87.6746 35.2796 88.2475 36.1677 88.2475 37.1992C88.2475 38.2022 87.6746 39.0901 86.3864 39.0901H85.2128V39.0898ZM97.2949 43.0728H97.0943C96.0638 43.0728 95.9206 42.8152 95.9206 41.4971V35.2796C95.9206 35.2796 97.1803 35.2796 97.2949 35.2796C100.272 35.2796 100.816 37.4569 100.816 39.1475C100.816 40.8951 100.272 43.0728 97.2949 43.0728Z" fill="#00749A"/>
<path d="M65.4306 40.1504L67.4062 34.305C67.979 32.6146 67.7213 32.1277 65.889 32.1277V31.5544H71.2714V32.1277C69.4678 32.1277 69.0384 32.5574 68.3226 34.6491L65.0584 44.4481H64.6864L61.7657 35.4798L58.7884 44.4481H58.4162L55.2383 34.6491C54.5511 32.5574 54.093 32.1277 52.4324 32.1277V31.5544H58.7884V32.1277C57.099 32.1277 56.6407 32.5287 57.2423 34.305L59.1604 40.1504L62.0521 31.5544H62.5963L65.4306 40.1504Z" fill="#00749A"/>
<path d="M75.1635 44.3332C72.0143 44.3332 69.4374 42.0126 69.4374 39.1757C69.4374 36.368 72.0145 34.0469 75.1635 34.0469C78.3129 34.0469 80.8895 36.368 80.8895 39.1757C80.8895 42.0126 78.3129 44.3332 75.1635 44.3332ZM75.1635 34.9357C72.5297 34.9357 71.6133 37.3135 71.6133 39.1759C71.6133 41.0673 72.5297 43.4166 75.1635 43.4166C77.8264 43.4166 78.7426 41.0673 78.7426 39.1759C78.7426 37.3135 77.8264 34.9357 75.1635 34.9357Z" fill="#00749A"/>
<path d="M109.627 43.2971V43.8701H103.07V43.2971C104.989 43.2971 105.332 42.8102 105.332 39.9445V35.3605C105.332 32.4948 104.989 32.0367 103.07 32.0367V31.4634H108.997C111.946 31.4634 113.578 32.982 113.578 35.0167C113.578 36.9937 111.946 38.5408 108.997 38.5408H107.365V39.9443C107.365 42.8102 107.708 43.2971 109.627 43.2971ZM108.997 32.4948H107.365V37.4806H108.997C110.6 37.4806 111.345 36.3632 111.345 35.0167C111.345 33.6414 110.6 32.4948 108.997 32.4948Z" fill="#464342"/>
<path d="M133.769 41.2679L133.626 41.7835C133.369 42.729 133.053 43.0728 131.02 43.0728H130.62C129.131 43.0728 128.873 42.729 128.873 40.6948V39.377C131.107 39.377 131.278 39.5772 131.278 41.0674H131.822V36.798H131.278C131.278 38.2878 131.107 38.4883 128.873 38.4883V35.2796H130.448C132.481 35.2796 132.795 35.6234 133.053 36.569L133.197 37.1131H133.654L133.454 34.4199H125.037V34.964C126.64 34.964 126.898 35.3078 126.898 37.3423V41.0099C126.898 42.8709 126.679 43.3397 125.415 43.4065C124.213 43.2229 123.389 42.5671 122.26 41.325L120.943 39.8926C122.718 39.577 123.663 38.4599 123.663 37.199C123.663 35.6234 122.317 34.4199 119.798 34.4199H114.759V34.964C116.362 34.964 116.62 35.3078 116.62 37.3423V41.0099C116.62 43.0441 116.362 43.4167 114.759 43.4167V43.961H120.457V43.4167C118.854 43.4167 118.596 43.0441 118.596 41.0099V39.9787H119.082L122.26 43.961H134.027L134.199 41.2681H133.769V41.2679ZM118.595 39.0898V35.2796H119.769C121.057 35.2796 121.63 36.1677 121.63 37.1992C121.63 38.2022 121.057 39.0901 119.769 39.0901H118.595V39.0898Z" fill="#464342"/>
<path d="M139.583 44.333C138.438 44.333 137.436 43.7315 137.006 43.3587C136.863 43.5023 136.606 43.932 136.548 44.333H136.004V40.3794H136.577C136.806 42.2703 138.123 43.3877 139.812 43.3877C140.728 43.3877 141.473 42.8721 141.473 42.0126C141.473 41.2678 140.814 40.6945 139.64 40.1502L138.008 39.3767C136.863 38.8319 136.004 37.8863 136.004 36.6259C136.004 35.2506 137.293 34.0761 139.068 34.0761C140.013 34.0761 140.814 34.4199 141.301 34.8209C141.444 34.7063 141.587 34.3909 141.673 34.0469H142.217V37.4281H141.616C141.415 36.0813 140.671 34.964 139.154 34.964C138.352 34.964 137.608 35.4224 137.608 36.139C137.608 36.8838 138.209 37.2848 139.583 37.9153L141.158 38.6888C142.532 39.3477 143.076 40.4084 143.076 41.2678C143.076 43.0726 141.501 44.333 139.583 44.333Z" fill="#464342"/>
<path d="M148.4 44.333C147.255 44.333 146.253 43.7315 145.824 43.3587C145.68 43.5023 145.423 43.932 145.366 44.333H144.822V40.3794H145.394C145.623 42.2703 146.94 43.3877 148.63 43.3877C149.546 43.3877 150.29 42.8721 150.29 42.0126C150.29 41.2678 149.632 40.6945 148.458 40.1502L146.826 39.3767C145.68 38.8319 144.821 37.8863 144.821 36.6259C144.821 35.2506 146.11 34.0761 147.885 34.0761C148.83 34.0761 149.631 34.4199 150.118 34.8209C150.261 34.7063 150.404 34.3909 150.49 34.0469H151.034V37.4281H150.433C150.233 36.0813 149.488 34.964 147.971 34.964C147.169 34.964 146.425 35.4224 146.425 36.139C146.425 36.8838 147.026 37.2848 148.4 37.9153L149.975 38.6888C151.349 39.3477 151.893 40.4084 151.893 41.2678C151.893 43.0726 150.318 44.333 148.4 44.333Z" fill="#464342"/>
<path d="M23.8002 37.5647C23.8002 42.5838 26.7149 46.9212 30.9413 48.9767L24.8972 32.4043C24.1942 33.9813 23.8002 35.7264 23.8002 37.5647Z" fill="#464342"/>
<path d="M45.0234 36.9245C45.0234 35.3574 44.461 34.2721 43.9785 33.4274C43.3362 32.3829 42.7342 31.4984 42.7342 30.4539C42.7342 29.2883 43.6176 28.2033 44.8619 28.2033C44.9181 28.2033 44.9714 28.2103 45.0261 28.2134C42.7718 26.1466 39.7685 24.8848 36.4698 24.8848C32.0433 24.8848 28.1488 27.1576 25.8832 30.6001C26.1805 30.6091 26.4607 30.6153 26.6986 30.6153C28.0239 30.6153 30.0754 30.4544 30.0754 30.4544C30.7585 30.4141 30.839 31.4181 30.1567 31.4989C30.1567 31.4989 29.4703 31.5797 28.7065 31.6198L33.3206 45.3545L36.0934 37.0321L34.1193 31.6193C33.437 31.5792 32.7907 31.4984 32.7907 31.4984C32.1079 31.4584 32.1879 30.4136 32.8707 30.4539C32.8707 30.4539 34.9632 30.6149 36.2082 30.6149C37.5333 30.6149 39.585 30.4539 39.585 30.4539C40.2685 30.4136 40.3488 31.4176 39.6663 31.4984C39.6663 31.4984 38.9784 31.5792 38.2161 31.6193L42.795 45.25L44.0588 41.0236C44.6066 39.2697 45.0234 38.01 45.0234 36.9245Z" fill="#464342"/>
<path d="M36.6924 38.6738L32.8908 49.7289C34.0259 50.0628 35.2263 50.2455 36.4701 50.2455C37.9456 50.2455 39.3606 49.9902 40.6778 49.5267C40.6438 49.4724 40.6129 49.4148 40.5876 49.352L36.6924 38.6738Z" fill="#464342"/>
<path d="M47.588 31.4807C47.6425 31.8846 47.6734 32.3182 47.6734 32.7846C47.6734 34.0713 47.4332 35.5178 46.7099 37.3264L42.8396 48.5248C46.6065 46.3265 49.1402 42.2424 49.1402 37.5645C49.1404 35.36 48.5777 33.2869 47.588 31.4807Z" fill="#464342"/>
<path d="M36.4697 22.7839C28.3257 22.7839 21.6996 29.4145 21.6996 37.5646C21.6996 45.7156 28.3257 52.3459 36.4697 52.3459C44.6135 52.3459 51.2405 45.7156 51.2405 37.5646C51.2403 29.4145 44.6135 22.7839 36.4697 22.7839ZM36.4697 51.6684C28.6992 51.6684 22.3769 45.3414 22.3769 37.5646C22.3769 29.7882 28.6989 23.4617 36.4697 23.4617C44.24 23.4617 50.5618 29.7882 50.5618 37.5646C50.5618 45.3414 44.24 51.6684 36.4697 51.6684Z" fill="#464342"/>
</g>
<defs>
<filter id="filter0_d_3_31" x="9.53674e-06" y="9.53674e-06" width="173.59" height="75.9455" filterUnits="userSpaceOnUse" color-interpolation-filters="sRGB">
<feFlood flood-opacity="0" result="BackgroundImageFix"/>
<feColorMatrix in="SourceAlpha" type="matrix" values="0 0 0 0 0 0 0 0 0 0 0 0 0 0 0 0 0 0 127 0" result="hardAlpha"/>
<feOffset/>
<feGaussianBlur stdDeviation="5.42468"/>
<feColorMatrix type="matrix" values="0 0 0 0 0.611765 0 0 0 0 0.627451 0 0 0 0 0.67451 0 0 0 0.4 0"/>
<feBlend mode="normal" in2="BackgroundImageFix" result="effect1_dropShadow_3_31"/>
<feBlend mode="normal" in="SourceGraphic" in2="effect1_dropShadow_3_31" result="shape"/>
</filter>
</defs>
</svg>
