<svg width="154" height="40" viewBox="0 0 154 40" fill="none" xmlns="http://www.w3.org/2000/svg">
<path d="M55.4316 25.1758C53.9727 25.1758 52.792 24.7422 51.8896 23.875C50.9873 23.002 50.5361 21.8682 50.5361 20.4736V20.2275C50.5361 19.2549 50.7148 18.3965 51.0723 17.6523C51.4355 16.9082 51.9629 16.334 52.6543 15.9297C53.3457 15.5195 54.166 15.3145 55.1152 15.3145C56.4512 15.3145 57.5059 15.7305 58.2793 16.5625C59.0527 17.3887 59.4395 18.543 59.4395 20.0254V21.1768H53.5508C53.6562 21.71 53.8877 22.1289 54.2451 22.4336C54.6025 22.7383 55.0654 22.8906 55.6338 22.8906C56.5713 22.8906 57.3037 22.5625 57.8311 21.9062L59.1846 23.5059C58.8154 24.0156 58.291 24.4229 57.6113 24.7275C56.9375 25.0264 56.2109 25.1758 55.4316 25.1758ZM55.0977 17.5996C54.2305 17.5996 53.7148 18.1738 53.5508 19.3223H56.5391V19.0938C56.5508 18.6191 56.4307 18.2529 56.1787 17.9951C55.9268 17.7314 55.5664 17.5996 55.0977 17.5996ZM63.4385 15.4902L63.5352 16.6064C64.209 15.7451 65.1143 15.3145 66.251 15.3145C67.4521 15.3145 68.2637 15.792 68.6855 16.7471C69.3301 15.792 70.2617 15.3145 71.4805 15.3145C73.4082 15.3145 74.3984 16.4805 74.4512 18.8125V25H71.4805V18.9971C71.4805 18.5107 71.3984 18.1562 71.2344 17.9336C71.0703 17.7109 70.7715 17.5996 70.3379 17.5996C69.752 17.5996 69.3154 17.8604 69.0283 18.3818L69.0371 18.5049V25H66.0664V19.0146C66.0664 18.5166 65.9873 18.1562 65.8291 17.9336C65.6709 17.7109 65.3691 17.5996 64.9238 17.5996C64.3555 17.5996 63.9219 17.8604 63.623 18.3818V25H60.6611V15.4902H63.4385ZM84.9717 20.3242C84.9717 21.8828 84.6494 23.0811 84.0049 23.9189C83.3604 24.7568 82.4521 25.1758 81.2803 25.1758C80.3135 25.1758 79.5342 24.792 78.9424 24.0244L78.8193 25H76.165V11.5H79.127V16.2549C79.6777 15.6279 80.3896 15.3145 81.2627 15.3145C82.4463 15.3145 83.3604 15.7393 84.0049 16.5889C84.6494 17.4385 84.9717 18.6338 84.9717 20.1748V20.3242ZM82.001 20.1396C82.001 19.2256 81.8779 18.5752 81.6318 18.1885C81.3916 17.7959 81.0195 17.5996 80.5156 17.5996C79.8477 17.5996 79.3848 17.8545 79.127 18.3643V22.1436C79.3789 22.6475 79.8477 22.8994 80.5332 22.8994C81.2305 22.8994 81.6729 22.5596 81.8604 21.8799C81.9541 21.5459 82.001 20.9658 82.001 20.1396ZM90.8867 25.1758C89.4277 25.1758 88.2471 24.7422 87.3447 23.875C86.4424 23.002 85.9912 21.8682 85.9912 20.4736V20.2275C85.9912 19.2549 86.1699 18.3965 86.5273 17.6523C86.8906 16.9082 87.418 16.334 88.1094 15.9297C88.8008 15.5195 89.6211 15.3145 90.5703 15.3145C91.9062 15.3145 92.9609 15.7305 93.7344 16.5625C94.5078 17.3887 94.8945 18.543 94.8945 20.0254V21.1768H89.0059C89.1113 21.71 89.3428 22.1289 89.7002 22.4336C90.0576 22.7383 90.5205 22.8906 91.0889 22.8906C92.0264 22.8906 92.7588 22.5625 93.2861 21.9062L94.6396 23.5059C94.2705 24.0156 93.7461 24.4229 93.0664 24.7275C92.3926 25.0264 91.666 25.1758 90.8867 25.1758ZM90.5527 17.5996C89.6855 17.5996 89.1699 18.1738 89.0059 19.3223H91.9941V19.0938C92.0059 18.6191 91.8857 18.2529 91.6338 17.9951C91.3818 17.7314 91.0215 17.5996 90.5527 17.5996ZM95.7207 20.1748C95.7207 18.6689 96.0459 17.4824 96.6963 16.6152C97.3467 15.748 98.2549 15.3145 99.4209 15.3145C100.271 15.3145 100.985 15.6484 101.565 16.3164V11.5H104.536V25H101.873L101.724 23.9805C101.114 24.7773 100.341 25.1758 99.4033 25.1758C98.2725 25.1758 97.376 24.7422 96.7139 23.875C96.0518 23.0078 95.7207 21.7744 95.7207 20.1748ZM98.6826 20.3594C98.6826 22.0469 99.1748 22.8906 100.159 22.8906C100.815 22.8906 101.284 22.6152 101.565 22.0645V18.4434C101.296 17.8809 100.833 17.5996 100.177 17.5996C99.2627 17.5996 98.7676 18.3379 98.6914 19.8145L98.6826 20.3594ZM111.198 22.3281C111.198 22.0762 111.066 21.874 110.803 21.7217C110.539 21.5693 110.038 21.4111 109.3 21.2471C108.562 21.083 107.952 20.8691 107.472 20.6055C106.991 20.3359 106.625 20.0107 106.373 19.6299C106.121 19.249 105.995 18.8125 105.995 18.3203C105.995 17.4473 106.355 16.7295 107.076 16.167C107.797 15.5986 108.74 15.3145 109.906 15.3145C111.16 15.3145 112.168 15.5986 112.93 16.167C113.691 16.7354 114.072 17.4824 114.072 18.4082H111.102C111.102 17.6465 110.7 17.2656 109.897 17.2656C109.587 17.2656 109.326 17.3535 109.115 17.5293C108.904 17.6992 108.799 17.9131 108.799 18.1709C108.799 18.4346 108.928 18.6484 109.186 18.8125C109.443 18.9766 109.854 19.1113 110.416 19.2168C110.984 19.3223 111.482 19.4482 111.91 19.5947C113.34 20.0869 114.055 20.9688 114.055 22.2402C114.055 23.1074 113.668 23.8135 112.895 24.3584C112.127 24.9033 111.131 25.1758 109.906 25.1758C109.092 25.1758 108.365 25.0293 107.727 24.7363C107.088 24.4434 106.59 24.0449 106.232 23.541C105.875 23.0371 105.696 22.5068 105.696 21.9502H108.465C108.477 22.3896 108.623 22.7119 108.904 22.917C109.186 23.1162 109.546 23.2158 109.985 23.2158C110.39 23.2158 110.691 23.1338 110.891 22.9697C111.096 22.8057 111.198 22.5918 111.198 22.3281ZM115.074 20.1572C115.074 19.208 115.259 18.3643 115.628 17.626C115.997 16.8818 116.527 16.3105 117.219 15.9121C117.91 15.5137 118.722 15.3145 119.653 15.3145C121.077 15.3145 122.199 15.7568 123.02 16.6416C123.84 17.5205 124.25 18.7188 124.25 20.2363V20.3418C124.25 21.8242 123.837 23.002 123.011 23.875C122.19 24.7422 121.077 25.1758 119.671 25.1758C118.317 25.1758 117.23 24.7715 116.41 23.9629C115.59 23.1484 115.147 22.0469 115.083 20.6582L115.074 20.1572ZM118.036 20.3418C118.036 21.2207 118.174 21.8652 118.449 22.2754C118.725 22.6855 119.132 22.8906 119.671 22.8906C120.726 22.8906 121.265 22.0791 121.288 20.4561V20.1572C121.288 18.4521 120.743 17.5996 119.653 17.5996C118.663 17.5996 118.127 18.335 118.045 19.8057L118.036 20.3418ZM129.576 22.8906C129.992 22.8906 130.314 22.7793 130.543 22.5566C130.771 22.3281 130.883 22.0117 130.877 21.6074H133.654C133.654 22.6504 133.279 23.5059 132.529 24.1738C131.785 24.8418 130.824 25.1758 129.646 25.1758C128.264 25.1758 127.174 24.7422 126.377 23.875C125.58 23.0078 125.182 21.8066 125.182 20.2715V20.1484C125.182 19.1875 125.357 18.3408 125.709 17.6084C126.066 16.8701 126.579 16.3047 127.247 15.9121C127.915 15.5137 128.706 15.3145 129.62 15.3145C130.856 15.3145 131.838 15.6572 132.564 16.3428C133.291 17.0283 133.654 17.957 133.654 19.1289H130.877C130.877 18.6367 130.757 18.2588 130.517 17.9951C130.276 17.7314 129.954 17.5996 129.55 17.5996C128.782 17.5996 128.334 18.0889 128.205 19.0674C128.164 19.3779 128.144 19.8057 128.144 20.3506C128.144 21.3057 128.258 21.9678 128.486 22.3369C128.715 22.7061 129.078 22.8906 129.576 22.8906ZM138.031 25H135.061V15.4902H138.031V25ZM134.885 13.0381C134.885 12.6162 135.037 12.2705 135.342 12.001C135.646 11.7314 136.042 11.5967 136.528 11.5967C137.015 11.5967 137.41 11.7314 137.715 12.001C138.02 12.2705 138.172 12.6162 138.172 13.0381C138.172 13.46 138.02 13.8057 137.715 14.0752C137.41 14.3447 137.015 14.4795 136.528 14.4795C136.042 14.4795 135.646 14.3447 135.342 14.0752C135.037 13.8057 134.885 13.46 134.885 13.0381ZM145.221 25C145.115 24.8066 145.021 24.5225 144.939 24.1475C144.395 24.833 143.633 25.1758 142.654 25.1758C141.758 25.1758 140.996 24.9062 140.369 24.3672C139.742 23.8223 139.429 23.1396 139.429 22.3193C139.429 21.2881 139.81 20.5088 140.571 19.9814C141.333 19.4541 142.44 19.1904 143.894 19.1904H144.808V18.6895C144.808 17.8164 144.43 17.3799 143.674 17.3799C142.971 17.3799 142.619 17.7256 142.619 18.417H139.657C139.657 17.4971 140.047 16.75 140.826 16.1758C141.611 15.6016 142.61 15.3145 143.823 15.3145C145.036 15.3145 145.994 15.6104 146.697 16.2021C147.4 16.7939 147.761 17.6055 147.778 18.6367V22.8467C147.79 23.7197 147.925 24.3877 148.183 24.8506V25H145.221ZM143.366 23.0664C143.735 23.0664 144.04 22.9873 144.28 22.8291C144.526 22.6709 144.702 22.4922 144.808 22.293V20.7725H143.946C142.915 20.7725 142.399 21.2354 142.399 22.1611C142.399 22.4307 142.49 22.6504 142.672 22.8203C142.854 22.9844 143.085 23.0664 143.366 23.0664ZM152.551 25H149.58V11.5H152.551V25Z" fill="black"/>
<rect width="40" height="40" rx="6.66667" fill="black"/>
<path d="M19.659 11.5042V12.621C19.659 13.5821 19.479 13.7379 18.8585 14.0757L13.0771 17.0108V17.1407L18.8323 20.024C19.479 20.3615 19.659 20.4916 19.659 21.4787V22.7253C19.659 23.5044 19.4003 23.7643 18.7292 23.4008L10.0308 18.6211C9.51522 18.3355 9.33337 18.1276 9.33337 17.5305V16.6992C9.33337 16.1017 9.51522 15.8679 10.0308 15.5823L18.7292 10.8287C19.4003 10.4652 19.659 10.7248 19.659 11.5042Z" fill="white"/>
<path d="M20.5775 15.6117L29.2497 20.3651C29.7915 20.6508 29.9733 20.8586 29.9733 21.4559V22.2872C29.9733 22.9106 29.7915 23.1183 29.2497 23.404L20.5775 28.1575C19.8802 28.5212 19.6477 28.2615 19.6477 27.4822V26.3653C19.6477 25.4043 19.8277 25.2483 20.4482 24.9367L26.2296 22.0015V21.8457L20.4744 18.9624C19.8277 18.6508 19.6477 18.4948 19.6477 17.5077V16.2609C19.6477 15.4815 19.8802 15.2221 20.5775 15.6117Z" fill="white"/>
</svg>
